<?xml version="1.0" encoding="utf-8"?>
<!-- Generator: Adobe Illustrator 28.0.0, SVG Export Plug-In . SVG Version: 6.00 Build 0)  -->
<svg version="1.1" id="Layer_1" xmlns="http://www.w3.org/2000/svg" xmlns:xlink="http://www.w3.org/1999/xlink" x="0px" y="0px"
	 viewBox="0 0 250 20" style="enable-background:new 0 0 250 20;" xml:space="preserve">
<style type="text/css">
	.st0{fill:#111111;}
	.st1{fill-rule:evenodd;clip-rule:evenodd;fill:#111111;}
</style>
<path class="st0" d="M7.84,20.01c-1.6,0.05-3.18-0.3-4.61-1C2.01,18.37,0.92,17.53,0,16.52l3.41-2.61c0.46,0.8,1.11,1.47,1.9,1.96
	c0.75,0.45,1.62,0.69,2.51,0.68c0.45,0.01,0.89-0.06,1.31-0.21c0.36-0.13,0.68-0.33,0.96-0.57c0.26-0.23,0.46-0.51,0.59-0.82
	c0.13-0.31,0.19-0.65,0.19-0.98c0.01-0.38-0.12-0.75-0.36-1.04c-0.26-0.3-0.58-0.55-0.94-0.73c-0.43-0.22-0.87-0.4-1.33-0.55
	c-0.51-0.16-1.02-0.32-1.56-0.48c-0.36-0.13-0.73-0.25-1.09-0.38c-0.31-0.11-0.63-0.22-0.94-0.33c-0.66-0.24-1.28-0.57-1.83-1
	c-0.54-0.42-1-0.95-1.32-1.55C1.14,7.17,0.96,6.38,0.99,5.58c-0.01-0.76,0.16-1.51,0.5-2.19c0.33-0.68,0.81-1.28,1.39-1.78
	C3.5,1.09,4.22,0.69,4.99,0.43C5.85,0.14,6.76,0,7.67,0.02C8.4,0.01,9.13,0.08,9.85,0.23c0.61,0.13,1.21,0.33,1.77,0.59
	c0.53,0.24,1.03,0.53,1.49,0.87c0.45,0.35,0.87,0.73,1.27,1.13L11.31,5.1c-0.39-0.59-0.92-1.07-1.56-1.4
	C9.11,3.37,8.4,3.21,7.67,3.23c-0.75-0.05-1.5,0.18-2.09,0.64c-0.23,0.2-0.41,0.44-0.54,0.71C4.93,4.85,4.87,5.15,4.87,5.45
	C4.86,5.8,4.98,6.15,5.2,6.43C5.45,6.72,5.75,6.96,6.1,7.14c0.42,0.22,0.86,0.4,1.31,0.55l1.57,0.52c0.68,0.21,1.36,0.46,2.05,0.73
	c0.67,0.27,1.3,0.63,1.87,1.07c0.56,0.44,1.03,0.99,1.36,1.62c0.36,0.72,0.54,1.52,0.52,2.33c0,0.78-0.16,1.55-0.48,2.26
	c-0.31,0.72-0.77,1.37-1.34,1.91c-0.63,0.58-1.37,1.05-2.18,1.36C9.85,19.85,8.85,20.03,7.84,20.01z"/>
<path class="st0" d="M24.39,20.01c-1.6,0.05-3.18-0.3-4.61-1c-1.24-0.66-2.34-1.53-3.27-2.56l3.47-2.55c0.46,0.8,1.11,1.47,1.9,1.96
	c0.75,0.45,1.62,0.69,2.5,0.68c0.45,0.01,0.89-0.06,1.31-0.21c0.36-0.13,0.68-0.33,0.97-0.57c0.26-0.23,0.46-0.51,0.59-0.82
	c0.13-0.31,0.19-0.65,0.19-0.98c0.01-0.38-0.11-0.75-0.36-1.04c-0.26-0.3-0.58-0.55-0.94-0.73c-0.43-0.22-0.88-0.4-1.34-0.55
	c-0.5-0.16-1.02-0.32-1.55-0.48c-0.68-0.21-1.36-0.45-2.04-0.69c-0.67-0.24-1.29-0.59-1.85-1.02c-0.55-0.42-0.99-0.95-1.32-1.55
	c-0.36-0.72-0.54-1.51-0.51-2.31c-0.01-0.76,0.16-1.51,0.5-2.19c0.33-0.68,0.8-1.28,1.39-1.78c0.62-0.52,1.34-0.92,2.12-1.19
	C22.39,0.14,23.3,0,24.2,0.02c0.74-0.01,1.47,0.06,2.19,0.21c0.61,0.13,1.21,0.33,1.78,0.59c0.53,0.24,1.03,0.54,1.49,0.89
	c0.45,0.35,0.87,0.73,1.27,1.13l-3.09,2.27c-0.38-0.59-0.92-1.07-1.56-1.4c-0.64-0.33-1.35-0.49-2.07-0.46
	c-0.76-0.05-1.5,0.18-2.09,0.64c-0.23,0.2-0.41,0.44-0.54,0.71c-0.12,0.27-0.18,0.57-0.18,0.86c-0.01,0.36,0.11,0.7,0.33,0.98
	c0.25,0.29,0.55,0.53,0.89,0.71c0.42,0.22,0.86,0.4,1.31,0.55l1.58,0.5c0.68,0.21,1.36,0.46,2.05,0.73c0.67,0.27,1.3,0.63,1.87,1.07
	C30,10.45,30.47,11,30.8,11.63c0.36,0.72,0.54,1.52,0.52,2.33c0,0.77-0.16,1.53-0.47,2.24c-0.31,0.73-0.77,1.39-1.35,1.94
	c-0.63,0.58-1.36,1.05-2.17,1.36C26.4,19.85,25.4,20.03,24.39,20.01z"/>
<path class="st0" d="M47.2,3.74h-9.19v4.54h9.19v3.47h-9.19v8.01h-3.74V0.27H47.2V3.74z"/>
<path class="st0" d="M55.45,16.63l1.27-0.96c0.55,0.85,1.33,1.55,2.24,2.02c0.92,0.47,1.94,0.71,2.98,0.68c2.65,0,4.69-1.58,4.69-4
	c0-2.57-2.36-3.33-4.9-4.15l-0.09-0.03c-2.68-0.82-5.5-1.87-5.5-5.12c0-2.78,2.54-4.8,5.81-4.8c2.69,0,4.5,1.01,5.8,2.61l-1.21,0.9
	c-1.05-1.43-2.49-2.18-4.55-2.18c-2.38,0-4.23,1.43-4.23,3.48c0,2.35,2.15,3.06,4.54,3.84c0.11,0.04,0.22,0.07,0.33,0.11
	c2.73,0.91,5.57,1.95,5.57,5.33c0,2.96-2.57,5.38-6.24,5.38c-1.26,0.03-2.52-0.23-3.65-0.77C57.18,18.42,56.19,17.62,55.45,16.63z"
	/>
<path class="st1" d="M91,4.6c-1.1,1.6-1.69,3.49-1.69,5.41c0,2.58,1.06,5.06,2.94,6.88c1.88,1.83,4.44,2.85,7.1,2.85
	c1.99,0,3.93-0.57,5.58-1.64c1.65-1.07,2.94-2.59,3.7-4.37c0.76-1.78,0.96-3.74,0.57-5.63c-0.39-1.89-1.34-3.63-2.75-4.99
	c-1.4-1.36-3.2-2.29-5.15-2.67c-1.95-0.38-3.97-0.18-5.81,0.56C93.68,1.74,92.11,2.99,91,4.6z M105.34,4.19
	c1.59,1.54,2.49,3.63,2.49,5.82c0,2.18-0.89,4.27-2.49,5.82c-1.59,1.54-3.75,2.41-6,2.41c-2.25,0-4.41-0.87-6-2.41
	c-1.59-1.54-2.49-3.63-2.49-5.82c0-2.18,0.89-4.27,2.49-5.82c1.59-1.54,3.75-2.41,6-2.41C101.59,1.78,103.75,2.65,105.34,4.19z"/>
<path class="st1" d="M112.53,0.53h6.68c4.31,0,7.15,2.78,7.15,6.44c0,3.66-2.84,6.47-7.15,6.47h-5.23v6.05h-1.45V0.53z M113.98,1.82
	v10.3h5.22c3.55,0,5.75-2.27,5.75-5.14c0-2.96-2.18-5.15-5.75-5.15L113.98,1.82z"/>
<path class="st0" d="M84.45,0.53H86v18.96h-1.55v-8.76H73.14v8.76h-1.55V0.53h1.55v8.77h11.31V0.53z"/>
</svg>
